<?xml version="1.0" encoding="utf-8"?>
<svg version="1.1" xmlns:xlink="http://www.w3.org/1999/xlink" width="35px" height="33px" xmlns="http://www.w3.org/2000/svg">
  <g transform="matrix(1 0 0 1 -1238 -2079 )">
    <path d="M 21.259765625 19.1967054263566  C 21.8522135416667 18.5074289405685  22.2471788194444 18.1627906976744  22.4446614583333 18.1627906976744  C 22.6421440972222 18.1627906976744  23.3827039930556 18.4754521963824  24.6663411458333 19.1007751937985  C 25.9499782986111 19.7260981912145  26.6297743055556 20.1027131782946  26.7057291666667 20.2306201550388  C 26.7361111111111 20.3016795865633  26.7513020833333 20.4082687338501  26.7513020833333 20.5503875968992  C 26.7513020833333 21.0193798449612  26.6221788194444 21.5594315245478  26.3639322916667 22.1705426356589  C 26.1208767361111 22.7248062015504  25.5815972222222 23.1902454780362  24.74609375 23.5668604651163  C 23.9105902777778 23.9434754521964  23.1358506944444 24.1317829457364  22.421875 24.1317829457364  C 21.5559895833333 24.1317829457364  20.1128472222222 23.6912144702842  18.0924479166667 22.8100775193798  C 16.6037326388889 22.1705426356589  15.3125 21.3320413436692  14.21875 20.2945736434109  C 13.125 19.2571059431525  12.0008680555556 17.9425064599483  10.8463541666667 16.3507751937985  C 9.75260416666667 14.8301033591731  9.21332465277778 13.4515503875969  9.228515625 12.2151162790698  L 9.228515625 12.0445736434109  C 9.27408854166667 10.7512919896641  9.83615451388889 9.62855297157622  10.9147135416667 8.67635658914729  C 11.279296875 8.36369509043927  11.6742621527778 8.20736434108527  12.099609375 8.20736434108527  C 12.1907552083333 8.20736434108527  12.3274739583333 8.21802325581395  12.509765625 8.23934108527132  C 12.6920572916667 8.26065891472868  12.8363715277778 8.27131782945736  12.9427083333333 8.27131782945736  C 13.2313368055556 8.27131782945736  13.4326171875 8.31750645994832  13.5465494791667 8.40988372093023  C 13.6604817708333 8.50226098191214  13.7782118055556 8.69767441860465  13.8997395833333 8.99612403100775  C 14.0212673611111 9.28036175710594  14.2719184027778 9.90568475452196  14.6516927083333 10.8720930232558  C 15.0314670138889 11.8385012919897  15.2213541666667 12.3714470284238  15.2213541666667 12.4709302325581  C 15.2213541666667 12.7693798449612  14.9593098958333 13.1779715762274  14.4352213541667 13.6967054263566  C 13.9111328125 14.2154392764858  13.6490885416667 14.5458656330749  13.6490885416667 14.687984496124  C 13.6490885416667 14.7874677002584  13.6870659722222 14.8940568475452  13.7630208333333 15.0077519379845  C 14.2795138888889 16.0452196382429  15.0542534722222 17.0187338501292  16.0872395833333 17.9282945736434  C 16.9379340277778 18.6815245478036  18.0848524305556 19.3992248062016  19.5279947916667 20.0813953488372  C 19.7102864583333 20.1808785529716  19.8773871527778 20.2306201550388  20.029296875 20.2306201550388  C 20.2571614583333 20.2306201550388  20.6673177083333 19.8859819121447  21.259765625 19.1967054263566  Z M 9.95768229166667 27.2441860465116  C 12.3578559027778 28.7222222222222  14.9782986111111 29.4612403100775  17.8190104166667 29.4612403100775  C 19.7482638888889 29.4612403100775  21.5977647569444 29.1059431524548  23.3675130208333 28.3953488372093  C 25.1372612847222 27.6847545219638  26.66015625 26.7325581395349  27.9361979166667 25.5387596899225  C 29.2122395833333 24.3449612403101  30.2300347222222 22.9202196382429  30.9895833333333 21.2645348837209  C 31.7491319444444 19.608850129199  32.12890625 17.8785529715762  32.12890625 16.0736434108527  C 32.12890625 14.2687338501292  31.7491319444444 12.5384366925065  30.9895833333333 10.8827519379845  C 30.2300347222222 9.22706718346253  29.2122395833333 7.80232558139535  27.9361979166667 6.60852713178295  C 26.66015625 5.41472868217054  25.1372612847222 4.4625322997416  23.3675130208333 3.75193798449612  C 21.5977647569444 3.04134366925064  19.7482638888889 2.68604651162791  17.8190104166667 2.68604651162791  C 15.8897569444444 2.68604651162791  14.0402560763889 3.04134366925064  12.2705078125 3.75193798449612  C 10.5007595486111 4.4625322997416  8.97786458333333 5.41472868217054  7.70182291666667 6.60852713178295  C 6.42578125 7.80232558139535  5.40798611111111 9.22706718346253  4.6484375 10.8827519379845  C 3.88888888888889 12.5384366925065  3.50911458333333 14.2687338501292  3.50911458333333 16.0736434108527  C 3.50911458333333 18.9586563307494  4.42057291666667 21.5736434108527  6.24348958333333 23.9186046511628  L 4.443359375 28.8856589147287  L 9.95768229166667 27.2441860465116  Z M 11.1539713541667 1.27906976744186  C 13.2731119791667 0.426356589147285  15.4947916666667 0  17.8190104166667 0  C 20.1432291666667 0  22.3649088541667 0.426356589147285  24.4840494791667 1.27906976744186  C 26.6031901041667 2.13178294573643  28.4299045138889 3.27583979328165  29.9641927083333 4.71124031007752  C 31.4984809027778 6.14664082687338  32.7213541666667 7.85562015503876  33.6328125 9.83817829457364  C 34.5442708333333 11.8207364341085  35 13.8992248062015  35 16.0736434108527  C 35 18.2480620155039  34.5442708333333 20.3265503875969  33.6328125 22.3091085271318  C 32.7213541666667 24.2916666666667  31.4984809027778 26.000645994832  29.9641927083333 27.4360465116279  C 28.4299045138889 28.8714470284238  26.6031901041667 30.015503875969  24.4840494791667 30.8682170542636  C 22.3649088541667 31.7209302325581  20.1432291666667 32.1472868217054  17.8190104166667 32.1472868217054  C 14.8567708333333 32.1472868217054  12.0844184027778 31.4793281653747  9.501953125 30.1434108527132  L 0 33  L 3.09895833333333 24.3662790697674  C 1.45833333333333 21.8365633074935  0.638020833333333 19.0723514211886  0.638020833333333 16.0736434108527  C 0.638020833333333 13.8992248062015  1.09375 11.8207364341085  2.00520833333333 9.83817829457364  C 2.91666666666667 7.85562015503876  4.13953993055556 6.14664082687338  5.673828125 4.71124031007752  C 7.20811631944445 3.27583979328165  9.03483072916667 2.13178294573643  11.1539713541667 1.27906976744186  Z " fill-rule="nonzero" fill="#000000" stroke="none" transform="matrix(1 0 0 1 1238 2079 )" />
  </g>
</svg>