<svg width="31" height="22" viewBox="0 0 31 22" fill="none" xmlns="http://www.w3.org/2000/svg">
	<path d="M30.3694 3.4589C30.1929 2.79539 29.8482 2.19028 29.3693 1.70381C28.8905 1.21734 28.2944 0.866477 27.6402 0.686137C25.2146 0.0110022 15.5107 1.19271e-05 15.5107 1.19271e-05C15.5107 1.19271e-05 5.80839 -0.010979 3.38126 0.634324C2.72751 0.822964 2.13257 1.17879 1.65356 1.66765C1.17455 2.15651 0.82756 2.76197 0.645896 3.42593C0.00619817 5.88468 2.26938e-06 10.9843 2.26938e-06 10.9843C2.26938e-06 10.9843 -0.00619334 16.109 0.628857 18.5427C0.985105 19.8882 2.03062 20.9512 3.35958 21.3139C5.80994 21.989 15.4875 22 15.4875 22C15.4875 22 25.1914 22.011 27.617 21.3672C28.2714 21.1872 28.8681 20.8372 29.3481 20.3517C29.8281 19.8662 30.1748 19.2621 30.3539 18.5992C30.9951 16.142 30.9998 11.044 30.9998 11.044C30.9998 11.044 31.0308 5.91765 30.3694 3.4589V3.4589ZM12.4067 15.7087L12.4145 6.28819L20.4796 11.0063L12.4067 15.7087V15.7087Z" fill="white" />
</svg>