<?xml version="1.0" encoding="utf-8"?>
<svg version="1.1" xmlns:xlink="http://www.w3.org/1999/xlink" width="25px" height="26px" xmlns="http://www.w3.org/2000/svg">
  <g transform="matrix(1 0 0 1 -29 -2319 )">
    <path d="M 18.9453125 23.51171875  C 19.1356169871795 23.2973090277778  19.2307692307692 23.0434027777778  19.2307692307692 22.75  C 19.2307692307692 22.4565972222222  19.1356169871795 22.2026909722222  18.9453125 21.98828125  C 18.7550080128205 21.7738715277778  18.5296474358974 21.6666666666667  18.2692307692308 21.6666666666667  C 18.0088141025641 21.6666666666667  17.783453525641 21.7738715277778  17.5931490384615 21.98828125  C 17.4028445512821 22.2026909722222  17.3076923076923 22.4565972222222  17.3076923076923 22.75  C 17.3076923076923 23.0434027777778  17.4028445512821 23.2973090277778  17.5931490384615 23.51171875  C 17.783453525641 23.7261284722222  18.0088141025641 23.8333333333333  18.2692307692308 23.8333333333333  C 18.5296474358974 23.8333333333333  18.7550080128205 23.7261284722222  18.9453125 23.51171875  Z M 22.7914663461538 23.51171875  C 22.9817708333333 23.2973090277778  23.0769230769231 23.0434027777778  23.0769230769231 22.75  C 23.0769230769231 22.4565972222222  22.9817708333333 22.2026909722222  22.7914663461538 21.98828125  C 22.6011618589744 21.7738715277778  22.3758012820513 21.6666666666667  22.1153846153846 21.6666666666667  C 21.8549679487179 21.6666666666667  21.6296073717949 21.7738715277778  21.4393028846154 21.98828125  C 21.2489983974359 22.2026909722222  21.1538461538462 22.4565972222222  21.1538461538462 22.75  C 21.1538461538462 23.0434027777778  21.2489983974359 23.2973090277778  21.4393028846154 23.51171875  C 21.6296073717949 23.7261284722222  21.8549679487179 23.8333333333333  22.1153846153846 23.8333333333333  C 22.3758012820513 23.8333333333333  22.6011618589744 23.7261284722222  22.7914663461538 23.51171875  Z M 24.5793269230769 17.8072916666667  C 24.8597756410256 18.1232638888889  25 18.5069444444444  25 18.9583333333333  L 25 24.375  C 25 24.8263888888889  24.8597756410256 25.2100694444444  24.5793269230769 25.5260416666667  C 24.2988782051282 25.8420138888889  23.9583333333333 26  23.5576923076923 26  L 1.44230769230769 26  C 1.04166666666667 26  0.701121794871795 25.8420138888889  0.420673076923077 25.5260416666667  C 0.140224358974359 25.2100694444444  0 24.8263888888889  0 24.375  L 0 18.9583333333333  C 0 18.5069444444444  0.140224358974359 18.1232638888889  0.420673076923077 17.8072916666667  C 0.701121794871795 17.4913194444444  1.04166666666667 17.3333333333333  1.44230769230769 17.3333333333333  L 8.42848557692308 17.3333333333333  L 10.4567307692308 19.6354166666667  C 11.0376602564103 20.2673611111111  11.71875 20.5833333333333  12.5 20.5833333333333  C 13.28125 20.5833333333333  13.9623397435897 20.2673611111111  14.5432692307692 19.6354166666667  L 16.5865384615385 17.3333333333333  L 23.5576923076923 17.3333333333333  C 23.9583333333333 17.3333333333333  24.2988782051282 17.4913194444444  24.5793269230769 17.8072916666667  Z M 19.2307692307692 8.66666666666667  C 19.6514423076923 8.66666666666667  19.9469150641026 8.88671875  20.1171875 9.32682291666667  C 20.2874599358974 9.78949652777778  20.2173477564103 10.1844618055556  19.9068509615385 10.51171875  L 13.1760817307692 18.0950520833333  C 12.9957932692308 18.3094618055556  12.7704326923077 18.4166666666667  12.5 18.4166666666667  C 12.2295673076923 18.4166666666667  12.0042067307692 18.3094618055556  11.8239182692308 18.0950520833333  L 5.09314903846154 10.51171875  C 4.78265224358974 10.1844618055556  4.71254006410256 9.78949652777778  4.8828125 9.32682291666667  C 5.05308493589744 8.88671875  5.34855769230769 8.66666666666667  5.76923076923077 8.66666666666667  L 9.61538461538462 8.66666666666667  L 9.61538461538462 1.08333333333333  C 9.61538461538462 0.789930555555552  9.71053685897436 0.536024305555552  9.90084134615385 0.321614583333332  C 10.0911458333333 0.107204861111113  10.3165064102564 0  10.5769230769231 0  L 14.4230769230769 0  C 14.6834935897436 0  14.9088541666667 0.107204861111113  15.0991586538462 0.321614583333332  C 15.2894631410256 0.536024305555552  15.3846153846154 0.789930555555552  15.3846153846154 1.08333333333333  L 15.3846153846154 8.66666666666667  L 19.2307692307692 8.66666666666667  Z " fill-rule="nonzero" fill="#000000" stroke="none" transform="matrix(1 0 0 1 29 2319 )" />
  </g>
</svg>