<?xml version="1.0" encoding="utf-8"?>
<svg version="1.1" xmlns:xlink="http://www.w3.org/1999/xlink" width="35px" height="33px" xmlns="http://www.w3.org/2000/svg">
  <g transform="matrix(1 0 0 1 -1185 -2079 )">
    <path d="M 32.6529947916667 8.2177734375  C 34.2176649305556 10.7457682291667  35 13.5065104166667  35 16.5  C 35 19.4934895833333  34.2176649305556 22.2542317708333  32.6529947916667 24.7822265625  C 31.0883246527778 27.3102213541667  28.9653862847222 29.3118489583333  26.2841796875 30.787109375  C 23.6029730902778 32.2623697916667  20.6749131944444 33  17.5 33  C 15.8138020833333 33  14.1579861111111 32.7708333333333  12.5325520833333 32.3125  C 13.4288194444444 30.98046875  14.0212673611111 29.8059895833333  14.3098958333333 28.7890625  C 14.4466145833333 28.3020833333333  14.8567708333333 26.791015625  15.5403645833333 24.255859375  C 15.8441840277778 24.814453125  16.3986545138889 25.2978515625  17.2037760416667 25.7060546875  C 18.0088975694444 26.1142578125  18.8747829861111 26.318359375  19.8014322916667 26.318359375  C 21.6395399305556 26.318359375  23.2801649305556 25.8277994791667  24.7233072916667 24.8466796875  C 26.1664496527778 23.8655598958333  27.2829861111111 22.515625  28.0729166666667 20.796875  C 28.8628472222222 19.078125  29.2578125 17.14453125  29.2578125 14.99609375  C 29.2578125 13.36328125  28.8058810763889 11.8307291666667  27.9020182291667 10.3984375  C 26.9981553819444 8.96614583333333  25.6879340277778 7.798828125  23.9713541666667 6.896484375  C 22.2547743055556 5.994140625  20.3179253472222 5.54296875  18.1608072916667 5.54296875  C 16.5657552083333 5.54296875  15.0770399305556 5.75065104166666  13.6946614583333 6.166015625  C 12.3122829861111 6.58138020833333  11.1387803819444 7.1328125  10.1741536458333 7.8203125  C 9.20952690972222 8.5078125  8.38161892361111 9.29915364583333  7.6904296875 10.1943359375  C 6.99924045138889 11.0895182291667  6.49034288194445 12.0169270833333  6.16373697916667 12.9765625  C 5.83713107638889 13.9361979166667  5.673828125 14.8958333333333  5.673828125 15.85546875  C 5.673828125 17.3450520833333  5.97764756944445 18.6555989583333  6.58528645833333 19.787109375  C 7.19292534722222 20.9186197916667  8.08159722222222 21.7135416666667  9.25130208333333 22.171875  C 9.70703125 22.34375  9.99565972222222 22.2005208333333  10.1171875 21.7421875  C 10.1475694444444 21.6419270833333  10.2083333333333 21.419921875  10.2994791666667 21.076171875  C 10.390625 20.732421875  10.4513888888889 20.517578125  10.4817708333333 20.431640625  C 10.5729166666667 20.1022135416667  10.4893663194444 19.7942708333333  10.2311197916667 19.5078125  C 9.45638020833333 18.6341145833333  9.06901041666667 17.552734375  9.06901041666667 16.263671875  C 9.06901041666667 14.1009114583333  9.86273871527778 12.2425130208333  11.4501953125 10.6884765625  C 13.0376519097222 9.13444010416666  15.1150173611111 8.357421875  17.6822916666667 8.357421875  C 19.9761284722222 8.357421875  21.7648654513889 8.94466145833333  23.0485026041667 10.119140625  C 24.3321397569444 11.2936197916667  24.9739583333333 12.8190104166667  24.9739583333333 14.6953125  C 24.9739583333333 17.1302083333333  24.4536675347222 19.1998697916667  23.4130859375 20.904296875  C 22.3725043402778 22.6087239583333  21.0394965277778 23.4609375  19.4140625 23.4609375  C 18.4874131944444 23.4609375  17.7430555555556 23.1494140625  17.1809895833333 22.5263671875  C 16.6189236111111 21.9033203125  16.4442274305556 21.1549479166667  16.6569010416667 20.28125  C 16.7784288194444 19.7799479166667  16.9797092013889 19.1103515625  17.2607421875 18.2724609375  C 17.5417751736111 17.4345703125  17.7696397569444 16.6969401041667  17.9443359375 16.0595703125  C 18.1190321180556 15.4222005208333  18.2063802083333 14.8815104166667  18.2063802083333 14.4375  C 18.2063802083333 13.7213541666667  18.0013020833333 13.126953125  17.5911458333333 12.654296875  C 17.1809895833333 12.181640625  16.5961371527778 11.9453125  15.8365885416667 11.9453125  C 14.8947482638889 11.9453125  14.0972222222222 12.353515625  13.4440104166667 13.169921875  C 12.7907986111111 13.986328125  12.4641927083333 15.0032552083333  12.4641927083333 16.220703125  C 12.4641927083333 17.2662760416667  12.6540798611111 18.1399739583333  13.0338541666667 18.841796875  L 10.7779947916667 27.822265625  C 10.5197482638889 28.8248697916667  10.4210069444444 30.0924479166667  10.4817708333333 31.625  C 7.35243055555555 30.3216145833333  4.82313368055556 28.3092447916667  2.89388020833333 25.587890625  C 0.964626736111111 22.8665364583333  0 19.8372395833333  0 16.5  C 0 13.5065104166667  0.782335069444444 10.7457682291667  2.34700520833333 8.2177734375  C 3.91167534722222 5.68977864583333  6.03461371527778 3.68815104166666  8.7158203125 2.212890625  C 11.3970269097222 0.73763020833333  14.3250868055556 0  17.5 0  C 20.6749131944444 0  23.6029730902778 0.73763020833333  26.2841796875 2.212890625  C 28.9653862847222 3.68815104166666  31.0883246527778 5.68977864583333  32.6529947916667 8.2177734375  Z " fill-rule="nonzero" fill="#000000" stroke="none" transform="matrix(1 0 0 1 1185 2079 )" />
  </g>
</svg>