<?xml version="1.0" encoding="utf-8"?>
<svg version="1.1" xmlns:xlink="http://www.w3.org/1999/xlink" width="35px" height="33px" xmlns="http://www.w3.org/2000/svg">
  <g transform="matrix(1 0 0 1 -1096 -2079 )">
    <path d="M 18.5823567708333 22.494140625  C 20.1242404513889 20.990234375  20.8951822916667 19.056640625  20.8951822916667 16.693359375  C 20.8951822916667 16.220703125  20.849609375 15.7623697916667  20.7584635416667 15.318359375  L 12.509765625 15.318359375  L 12.509765625 18.154296875  L 17.4544270833333 18.154296875  C 17.2721354166667 19.2428385416667  16.7062717013889 20.1057942708333  15.7568359375 20.7431640625  C 14.8074001736111 21.3805338541667  13.7250434027778 21.69921875  12.509765625 21.69921875  C 11.005859375 21.69921875  9.72222222222222 21.1871744791667  8.65885416666667 20.1630859375  C 7.59548611111111 19.1389973958333  7.06380208333333 17.91796875  7.06380208333333 16.5  C 7.06380208333333 15.08203125  7.59548611111111 13.8610026041667  8.65885416666667 12.8369140625  C 9.72222222222222 11.8128255208333  11.005859375 11.30078125  12.509765625 11.30078125  C 13.9225260416667 11.30078125  15.0846354166667 11.7233072916667  15.99609375 12.568359375  L 18.3658854166667 10.3984375  C 16.7252604166667 8.96614583333333  14.7732204861111 8.25  12.509765625 8.25  C 10.0792100694444 8.25  8.01323784722222 9.0556640625  6.31184895833333 10.6669921875  C 4.61046006944444 12.2783203125  3.759765625 14.22265625  3.759765625 16.5  C 3.759765625 18.77734375  4.61046006944444 20.7216796875  6.31184895833333 22.3330078125  C 8.01323784722222 23.9443359375  10.0792100694444 24.75  12.509765625 24.75  C 15.0162760416667 24.75  17.0404730902778 23.998046875  18.5823567708333 22.494140625  Z M 28.7565104166667 20.044921875  L 28.7565104166667 17.681640625  L 31.240234375 17.681640625  L 31.240234375 15.318359375  L 28.7565104166667 15.318359375  L 28.7565104166667 12.955078125  L 26.25 12.955078125  L 26.25 15.318359375  L 23.7434895833333 15.318359375  L 23.7434895833333 17.681640625  L 26.25 17.681640625  L 26.25 20.044921875  L 28.7565104166667 20.044921875  Z M 32.6529947916667 8.2177734375  C 34.2176649305556 10.7457682291667  35 13.5065104166667  35 16.5  C 35 19.4934895833333  34.2176649305556 22.2542317708333  32.6529947916667 24.7822265625  C 31.0883246527778 27.3102213541667  28.9653862847222 29.3118489583333  26.2841796875 30.787109375  C 23.6029730902778 32.2623697916667  20.6749131944444 33  17.5 33  C 14.3250868055556 33  11.3970269097222 32.2623697916667  8.7158203125 30.787109375  C 6.03461371527778 29.3118489583333  3.91167534722222 27.3102213541667  2.34700520833333 24.7822265625  C 0.782335069444444 22.2542317708333  0 19.4934895833333  0 16.5  C 0 13.5065104166667  0.782335069444444 10.7457682291667  2.34700520833333 8.2177734375  C 3.91167534722222 5.68977864583333  6.03461371527778 3.68815104166666  8.7158203125 2.212890625  C 11.3970269097222 0.73763020833333  14.3250868055556 0  17.5 0  C 20.6749131944444 0  23.6029730902778 0.73763020833333  26.2841796875 2.212890625  C 28.9653862847222 3.68815104166666  31.0883246527778 5.68977864583333  32.6529947916667 8.2177734375  Z " fill-rule="nonzero" fill="#000000" stroke="none" transform="matrix(1 0 0 1 1096 2079 )" />
  </g>
</svg>