<?xml version="1.0" encoding="utf-8"?>
<svg version="1.1" xmlns:xlink="http://www.w3.org/1999/xlink" width="18px" height="33px" xmlns="http://www.w3.org/2000/svg">
  <g transform="matrix(1 0 0 1 -1069 -2079 )">
    <path d="M 13.25 0  C 15.2916666666667 0  16.875 0.0793269230769228  18 0.237980769230768  L 18 5.47355769230769  L 14.7291666666667 5.47355769230769  C 13.5347222222222 5.47355769230769  12.7291666666667 5.71153846153846  12.3125 6.1875  C 11.8958333333333 6.66346153846154  11.6875 7.37740384615385  11.6875 8.32932692307692  L 11.6875 12.0775240384615  L 17.7916666666667 12.0775240384615  L 16.9791666666667 17.9477163461538  L 11.6875 17.9477163461538  L 11.6875 33  L 5.3125 33  L 5.3125 17.9477163461538  L 0 17.9477163461538  L 0 12.0775240384615  L 5.3125 12.0775240384615  L 5.3125 7.75420673076923  C 5.3125 5.29507211538461  6.03472222222222 3.38792067307692  7.47916666666667 2.03275240384615  C 8.92361111111111 0.677584134615387  10.8472222222222 0  13.25 0  Z " fill-rule="nonzero" fill="#000000" stroke="none" transform="matrix(1 0 0 1 1069 2079 )" />
  </g>
</svg>