<svg width="32" height="19" viewBox="0 0 32 19" fill="none" xmlns="http://www.w3.org/2000/svg">
<path d="M16.0251 0.00641874C16.5582 0.00518032 17.0749 0.225941 17.4854 0.630381L31.1757 14.1948C31.6417 14.6553 31.9347 15.317 31.9903 16.0343C32.046 16.7517 31.8596 17.4659 31.4723 18.02C31.0851 18.574 30.5285 18.9224 29.9252 18.9885C29.3218 19.0547 28.7211 18.8331 28.2551 18.3726L16.0251 6.21892L3.79507 17.9386C3.56168 18.1639 3.29313 18.3322 3.00486 18.4338C2.71659 18.5353 2.41428 18.5681 2.11531 18.5303C1.81634 18.4925 1.5266 18.3848 1.26275 18.2134C0.9989 18.042 0.766138 17.8103 0.577845 17.5316C0.368885 17.2527 0.210629 16.9255 0.112988 16.5704C0.0153469 16.2154 -0.0195706 15.8402 0.0104182 15.4683C0.0404071 15.0965 0.134655 14.736 0.287264 14.4095C0.439873 14.083 0.647554 13.7975 0.89729 13.5708L14.5876 0.46761C15.0099 0.1271 15.516 -0.0352806 16.0251 0.00641874V0.00641874Z" fill="black"/>
</svg>
