<?xml version="1.0" encoding="utf-8"?>
<svg version="1.1" xmlns:xlink="http://www.w3.org/1999/xlink" width="29px" height="37px" xmlns="http://www.w3.org/2000/svg">
  <g transform="matrix(1 0 0 1 -673 -2457 )">
    <path d="M 18.7167567567568 28.096875  C 18.9675675675676 28.328125  19.092972972973 28.5979166666667  19.092972972973 28.90625  L 19.092972972973 35.84375  C 19.092972972973 36.1520833333333  18.9675675675676 36.421875  18.7167567567568 36.653125  C 18.4659459459459 36.884375  18.1733333333333 37  17.8389189189189 37  L 10.3145945945946 37  C 9.98018018018018 37  9.68756756756757 36.884375  9.43675675675676 36.653125  C 9.18594594594595 36.421875  9.06054054054054 36.1520833333333  9.06054054054054 35.84375  L 9.06054054054054 28.90625  C 9.06054054054054 28.5979166666667  9.18594594594595 28.328125  9.43675675675676 28.096875  C 9.68756756756757 27.865625  9.98018018018018 27.75  10.3145945945946 27.75  L 17.8389189189189 27.75  C 18.1733333333333 27.75  18.4659459459459 27.865625  18.7167567567568 28.096875  Z M 27.7145945945946 6.980859375  C 28.5715315315315 8.43580729166666  29 9.96302083333333  29 11.5625  C 29 12.603125  28.838018018018 13.5763020833333  28.5140540540541 14.48203125  C 28.1900900900901 15.3877604166667  27.8243243243243 16.1248697916667  27.4167567567568 16.693359375  C 27.0091891891892 17.2618489583333  26.4344144144144 17.83515625  25.6924324324324 18.41328125  C 24.9504504504505 18.99140625  24.3495495495496 19.410546875  23.8897297297297 19.670703125  C 23.4299099099099 19.930859375  22.7924324324324 20.2729166666667  21.9772972972973 20.696875  C 21.1203603603604 21.1401041666667  20.4045045045045 21.76640625  19.8297297297297 22.57578125  C 19.254954954955 23.38515625  18.9675675675676 24.0307291666667  18.9675675675676 24.5125  C 18.9675675675676 24.8401041666667  18.8421621621622 25.1532552083333  18.5913513513514 25.451953125  C 18.3405405405405 25.7506510416667  18.0479279279279 25.9  17.7135135135135 25.9  L 10.1891891891892 25.9  C 9.87567567567568 25.9  9.60918918918919 25.7217447916667  9.38972972972973 25.365234375  C 9.17027027027027 25.0087239583333  9.06054054054054 24.6473958333333  9.06054054054054 24.28125  L 9.06054054054054 22.98046875  C 9.06054054054054 21.3809895833333  9.73981981981982 19.873046875  11.0983783783784 18.456640625  C 12.4569369369369 17.040234375  13.9513513513514 15.9947916666667  15.5816216216216 15.3203125  C 16.8147747747748 14.8  17.6926126126126 14.2604166666667  18.2151351351351 13.7015625  C 18.7376576576577 13.1427083333333  18.9989189189189 12.4104166666667  18.9989189189189 11.5046875  C 18.9989189189189 10.6953125  18.512972972973 9.98229166666667  17.5410810810811 9.365625  C 16.5691891891892 8.74895833333333  15.4457657657658 8.440625  14.1708108108108 8.440625  C 12.8122522522523 8.440625  11.6836036036036 8.72005208333333  10.7848648648649 9.27890625  C 10.0533333333333 9.76067708333333  8.93513513513514 10.86875  7.43027027027027 12.603125  C 7.15855855855856 12.9114583333333  6.83459459459459 13.065625  6.45837837837838 13.065625  C 6.20756756756757 13.065625  5.94630630630631 12.9885416666667  5.67459459459459 12.834375  L 0.532972972972973 9.22109375  C 0.261261261261262 9.02838541666666  0.0992792792792799 8.7875  0.047027027027027 8.4984375  C -0.00522522522522493 8.209375  0.0522522522522524 7.93958333333333  0.219459459459459 7.6890625  C 3.5636036036036 2.56302083333333  8.41261261261261 0  14.7664864864865 0  C 16.4385585585586 0  18.1210810810811 0.298697916666666  19.8140540540541 0.896093749999998  C 21.507027027027 1.49348958333333  23.0327927927928 2.29322916666666  24.3913513513514 3.2953125  C 25.7499099099099 4.29739583333333  26.8576576576577 5.52591145833333  27.7145945945946 6.980859375  Z " fill-rule="nonzero" fill="#aaaaaa" stroke="none" transform="matrix(1 0 0 1 673 2457 )" />
  </g>
</svg>