<?xml version="1.0" encoding="utf-8"?>
<svg version="1.1" xmlns:xlink="http://www.w3.org/1999/xlink" width="35px" height="33px" xmlns="http://www.w3.org/2000/svg">
  <g transform="matrix(1 0 0 1 -1138 -2079 )">
    <path d="M 21.6243489583333 20.388671875  C 22.763671875 19.314453125  23.3333333333333 18.0182291666667  23.3333333333333 16.5  C 23.3333333333333 14.9817708333333  22.763671875 13.685546875  21.6243489583333 12.611328125  C 20.4850260416667 11.537109375  19.1102430555556 11  17.5 11  C 15.8897569444444 11  14.5149739583333 11.537109375  13.3756510416667 12.611328125  C 12.236328125 13.685546875  11.6666666666667 14.9817708333333  11.6666666666667 16.5  C 11.6666666666667 18.0182291666667  12.236328125 19.314453125  13.3756510416667 20.388671875  C 14.5149739583333 21.462890625  15.8897569444444 22  17.5 22  C 19.1102430555556 22  20.4850260416667 21.462890625  21.6243489583333 20.388671875  Z M 23.857421875 10.505859375  C 25.6043836805556 12.1529947916667  26.4778645833333 14.1510416666667  26.4778645833333 16.5  C 26.4778645833333 18.8489583333333  25.6043836805556 20.8470052083333  23.857421875 22.494140625  C 22.1104600694444 24.1412760416667  19.9913194444444 24.96484375  17.5 24.96484375  C 15.0086805555556 24.96484375  12.8895399305556 24.1412760416667  11.142578125 22.494140625  C 9.39561631944444 20.8470052083333  8.52213541666667 18.8489583333333  8.52213541666667 16.5  C 8.52213541666667 14.1510416666667  9.39561631944444 12.1529947916667  11.142578125 10.505859375  C 12.8895399305556 8.85872395833333  15.0086805555556 8.03515625  17.5 8.03515625  C 19.9913194444444 8.03515625  22.1104600694444 8.85872395833333  23.857421875 10.505859375  Z M 28.3235677083333 6.294921875  C 28.7337239583333 6.681640625  28.9388020833333 7.14713541666666  28.9388020833333 7.69140625  C 28.9388020833333 8.23567708333333  28.7337239583333 8.701171875  28.3235677083333 9.087890625  C 27.9134114583333 9.474609375  27.4197048611111 9.66796875  26.8424479166667 9.66796875  C 26.2651909722222 9.66796875  25.771484375 9.474609375  25.361328125 9.087890625  C 24.951171875 8.701171875  24.74609375 8.23567708333333  24.74609375 7.69140625  C 24.74609375 7.14713541666666  24.951171875 6.681640625  25.361328125 6.294921875  C 25.771484375 5.908203125  26.2651909722222 5.71484375  26.8424479166667 5.71484375  C 27.4197048611111 5.71484375  27.9134114583333 5.908203125  28.3235677083333 6.294921875  Z M 19.2431640625 2.9541015625  C 18.1873914930556 2.96126302083333  17.6063368055556 2.96484375  17.5 2.96484375  C 17.3936631944444 2.96484375  16.8126085069444 2.96126302083333  15.7568359375 2.9541015625  C 14.7010633680556 2.94694010416666  13.8997395833333 2.94694010416666  13.3528645833333 2.9541015625  C 12.8059895833333 2.96126302083333  12.0730251736111 2.98274739583333  11.1539713541667 3.0185546875  C 10.2349175347222 3.05436197916666  9.45258246527778 3.1259765625  8.80696614583333 3.2333984375  C 8.16134982638889 3.3408203125  7.61827256944445 3.47330729166666  7.177734375 3.630859375  C 6.41818576388889 3.91731770833333  5.74978298611111 4.33268229166666  5.17252604166667 4.876953125  C 4.59526909722222 5.42122395833333  4.15473090277778 6.05143229166666  3.85091145833333 6.767578125  C 3.68381076388889 7.18294270833333  3.54329427083333 7.69498697916666  3.42936197916667 8.3037109375  C 3.3154296875 8.91243489583333  3.23947482638889 9.65006510416666  3.20149739583333 10.5166015625  C 3.16351996527778 11.3831380208333  3.14073350694444 12.07421875  3.13313802083333 12.58984375  C 3.12554253472222 13.10546875  3.12554253472222 13.8610026041667  3.13313802083333 14.8564453125  C 3.14073350694444 15.8518880208333  3.14453125 16.3997395833333  3.14453125 16.5  C 3.14453125 16.6002604166667  3.14073350694444 17.1481119791667  3.13313802083333 18.1435546875  C 3.12554253472222 19.1389973958333  3.12554253472222 19.89453125  3.13313802083333 20.41015625  C 3.14073350694444 20.92578125  3.16351996527778 21.6168619791667  3.20149739583333 22.4833984375  C 3.23947482638889 23.3499348958333  3.3154296875 24.0875651041667  3.42936197916667 24.6962890625  C 3.54329427083333 25.3050130208333  3.68381076388889 25.8170572916667  3.85091145833333 26.232421875  C 4.15473090277778 26.9485677083333  4.59526909722222 27.5787760416667  5.17252604166667 28.123046875  C 5.74978298611111 28.6673177083333  6.41818576388889 29.0826822916667  7.177734375 29.369140625  C 7.61827256944445 29.5266927083333  8.16134982638889 29.6591796875  8.80696614583333 29.7666015625  C 9.45258246527778 29.8740234375  10.2349175347222 29.9456380208333  11.1539713541667 29.9814453125  C 12.0730251736111 30.0172526041667  12.8059895833333 30.0387369791667  13.3528645833333 30.0458984375  C 13.8997395833333 30.0530598958333  14.7010633680556 30.0530598958333  15.7568359375 30.0458984375  C 16.8126085069444 30.0387369791667  17.3936631944444 30.03515625  17.5 30.03515625  C 17.6063368055556 30.03515625  18.1873914930556 30.0387369791667  19.2431640625 30.0458984375  C 20.2989366319444 30.0530598958333  21.1002604166667 30.0530598958333  21.6471354166667 30.0458984375  C 22.1940104166667 30.0387369791667  22.9269748263889 30.0172526041667  23.8460286458333 29.9814453125  C 24.7650824652778 29.9456380208333  25.5474175347222 29.8740234375  26.1930338541667 29.7666015625  C 26.8386501736111 29.6591796875  27.3817274305556 29.5266927083333  27.822265625 29.369140625  C 28.5818142361111 29.0826822916667  29.2502170138889 28.6673177083333  29.8274739583333 28.123046875  C 30.4047309027778 27.5787760416667  30.8452690972222 26.9485677083333  31.1490885416667 26.232421875  C 31.3161892361111 25.8170572916667  31.4567057291667 25.3050130208333  31.5706380208333 24.6962890625  C 31.6845703125 24.0875651041667  31.7605251736111 23.3499348958333  31.7985026041667 22.4833984375  C 31.8364800347222 21.6168619791667  31.8592664930556 20.92578125  31.8668619791667 20.41015625  C 31.8744574652778 19.89453125  31.8744574652778 19.1389973958333  31.8668619791667 18.1435546875  C 31.8592664930556 17.1481119791667  31.85546875 16.6002604166667  31.85546875 16.5  C 31.85546875 16.3997395833333  31.8592664930556 15.8518880208333  31.8668619791667 14.8564453125  C 31.8744574652778 13.8610026041667  31.8744574652778 13.10546875  31.8668619791667 12.58984375  C 31.8592664930556 12.07421875  31.8364800347222 11.3831380208333  31.7985026041667 10.5166015625  C 31.7605251736111 9.65006510416666  31.6845703125 8.91243489583333  31.5706380208333 8.3037109375  C 31.4567057291667 7.69498697916666  31.3161892361111 7.18294270833333  31.1490885416667 6.767578125  C 30.8452690972222 6.05143229166666  30.4047309027778 5.42122395833333  29.8274739583333 4.876953125  C 29.2502170138889 4.33268229166666  28.5818142361111 3.91731770833333  27.822265625 3.630859375  C 27.3817274305556 3.47330729166666  26.8386501736111 3.3408203125  26.1930338541667 3.2333984375  C 25.5474175347222 3.1259765625  24.7650824652778 3.05436197916666  23.8460286458333 3.0185546875  C 22.9269748263889 2.98274739583333  22.1940104166667 2.96126302083333  21.6471354166667 2.9541015625  C 21.1002604166667 2.94694010416666  20.2989366319444 2.94694010416666  19.2431640625 2.9541015625  Z M 34.8860677083333 9.689453125  C 34.9620225694444 10.9498697916667  35 13.2200520833333  35 16.5  C 35 19.7799479166667  34.9620225694444 22.0501302083333  34.8860677083333 23.310546875  C 34.7341579861111 26.2897135416667  33.7923177083333 28.595703125  32.060546875 30.228515625  C 30.3287760416667 31.861328125  27.8830295138889 32.7493489583333  24.7233072916667 32.892578125  C 23.3865017361111 32.9641927083333  20.9787326388889 33  17.5 33  C 14.0212673611111 33  11.6134982638889 32.9641927083333  10.2766927083333 32.892578125  C 7.11697048611111 32.7493489583333  4.67122395833333 31.861328125  2.939453125 30.228515625  C 1.20768229166667 28.595703125  0.265842013888889 26.2897135416667  0.113932291666667 23.310546875  C 0.0379774305555556 22.0501302083333  0 19.7799479166667  0 16.5  C 0 13.2200520833333  0.0379774305555556 10.9498697916667  0.113932291666667 9.689453125  C 0.265842013888889 6.71028645833333  1.20768229166667 4.404296875  2.939453125 2.771484375  C 4.67122395833333 1.138671875  7.11697048611111 0.250651041666665  10.2766927083333 0.107421875000001  C 11.6134982638889 0.0358072916666622  14.0212673611111 0  17.5 0  C 20.9787326388889 0  23.3865017361111 0.0358072916666622  24.7233072916667 0.107421875000001  C 27.8830295138889 0.250651041666665  30.3287760416667 1.138671875  32.060546875 2.771484375  C 33.7923177083333 4.404296875  34.7341579861111 6.71028645833333  34.8860677083333 9.689453125  Z " fill-rule="nonzero" fill="#000000" stroke="none" transform="matrix(1 0 0 1 1138 2079 )" />
  </g>
</svg>